HIERARCHY
ROOT Hips
{
	OFFSET -341.196167 -577.024780 88.986252
	CHANNELS 6 Xposition Yposition Zposition Zrotation Yrotation Xrotation
	JOINT Spine
	{
		OFFSET 0.000000 2.080078 8.814247
		CHANNELS 6 Xposition Yposition Zposition Zrotation Yrotation Xrotation
		JOINT Spine1
		{
			OFFSET 0.000000 0.000000 8.844139
			CHANNELS 6 Xposition Yposition Zposition Zrotation Yrotation Xrotation
			JOINT Spine2
			{
				OFFSET 0.000000 0.000000 11.682266
				CHANNELS 6 Xposition Yposition Zposition Zrotation Yrotation Xrotation
				JOINT Spine3
				{
					OFFSET 0.000000 0.000000 11.746704
					CHANNELS 6 Xposition Yposition Zposition Zrotation Yrotation Xrotation
					JOINT Neck
					{
						OFFSET 0.000000 0.000000 17.658264
						CHANNELS 6 Xposition Yposition Zposition Zrotation Yrotation Xrotation
						JOINT Neck1
						{
							OFFSET 0.000000 0.000000 5.101517
							CHANNELS 6 Xposition Yposition Zposition Zrotation Yrotation Xrotation
							JOINT Head
							{
								OFFSET 0.000000 0.000000 5.101517
								CHANNELS 6 Xposition Yposition Zposition Zrotation Yrotation Xrotation
								JOINT HeadEnd
								{
									OFFSET 0.000000 0.000000 11.655090
									CHANNELS 6 Xposition Yposition Zposition Zrotation Yrotation Xrotation
									End Site
									{
										OFFSET 0.000000 0.000000 0.100006
									}
								}
							}
						}
					}
					JOINT RightShoulder
					{
						OFFSET -2.625397 0.000000 11.175217
						CHANNELS 6 Xposition Yposition Zposition Zrotation Yrotation Xrotation
						JOINT RightArm
						{
							OFFSET 0.000000 0.000000 10.434723
							CHANNELS 6 Xposition Yposition Zposition Zrotation Yrotation Xrotation
							JOINT RightForeArm
							{
								OFFSET 0.000000 0.000000 29.628418
								CHANNELS 6 Xposition Yposition Zposition Zrotation Yrotation Xrotation
								JOINT RightHand
								{
									OFFSET 0.000000 0.000000 22.857605
									CHANNELS 6 Xposition Yposition Zposition Zrotation Yrotation Xrotation
									JOINT RightHandThumb1
									{
										OFFSET -2.867310 -2.944275 3.959564
										CHANNELS 6 Xposition Yposition Zposition Zrotation Yrotation Xrotation
										JOINT RightHandThumb2
										{
											OFFSET 0.000000 0.000000 3.350403
											CHANNELS 6 Xposition Yposition Zposition Zrotation Yrotation Xrotation
											JOINT RightHandThumb3
											{
												OFFSET 0.000000 0.000000 3.756516
												CHANNELS 6 Xposition Yposition Zposition Zrotation Yrotation Xrotation
												JOINT RightHandThumb4
												{
													OFFSET 0.000000 0.000000 3.147339
													CHANNELS 6 Xposition Yposition Zposition Zrotation Yrotation Xrotation
													End Site
													{
														OFFSET 0.000000 0.000000 0.100006
													}
												}
											}
										}
									}
									JOINT RightHandIndex1
									{
										OFFSET -0.086761 -2.345276 10.030899
										CHANNELS 6 Xposition Yposition Zposition Zrotation Yrotation Xrotation
										JOINT RightHandIndex2
										{
											OFFSET 0.000000 0.000000 4.061096
											CHANNELS 6 Xposition Yposition Zposition Zrotation Yrotation Xrotation
											JOINT RightHandIndex3
											{
												OFFSET 0.000000 0.000000 3.248871
												CHANNELS 6 Xposition Yposition Zposition Zrotation Yrotation Xrotation
												JOINT RightHandIndex4
												{
													OFFSET 0.000000 0.000000 2.639709
													CHANNELS 6 Xposition Yposition Zposition Zrotation Yrotation Xrotation
													End Site
													{
														OFFSET 0.000000 0.000000 0.100006
													}
												}
											}
										}
									}
									JOINT RightHandMiddle1
									{
										OFFSET 0.104095 -0.006775 9.502945
										CHANNELS 6 Xposition Yposition Zposition Zrotation Yrotation Xrotation
										JOINT RightHandMiddle2
										{
											OFFSET 0.000000 0.000000 4.568726
											CHANNELS 6 Xposition Yposition Zposition Zrotation Yrotation Xrotation
											JOINT RightHandMiddle3
											{
												OFFSET 0.000000 0.000000 3.654984
												CHANNELS 6 Xposition Yposition Zposition Zrotation Yrotation Xrotation
												JOINT RightHandMiddle4
												{
													OFFSET 0.000000 0.000000 2.741241
													CHANNELS 6 Xposition Yposition Zposition Zrotation Yrotation Xrotation
													End Site
													{
														OFFSET 0.000000 0.000000 0.100006
													}
												}
											}
										}
									}
									JOINT RightHandRing1
									{
										OFFSET 0.086761 2.267456 8.921707
										CHANNELS 6 Xposition Yposition Zposition Zrotation Yrotation Xrotation
										JOINT RightHandRing2
										{
											OFFSET 0.000000 0.000000 4.061096
											CHANNELS 6 Xposition Yposition Zposition Zrotation Yrotation Xrotation
											JOINT RightHandRing3
											{
												OFFSET 0.000000 0.000000 3.654984
												CHANNELS 6 Xposition Yposition Zposition Zrotation Yrotation Xrotation
												JOINT RightHandRing4
												{
													OFFSET 0.000000 0.000000 2.741241
													CHANNELS 6 Xposition Yposition Zposition Zrotation Yrotation Xrotation
													End Site
													{
														OFFSET 0.000000 0.000000 0.100006
													}
												}
											}
										}
									}
									JOINT RightHandPinky1
									{
										OFFSET -0.173492 4.467224 7.976990
										CHANNELS 6 Xposition Yposition Zposition Zrotation Yrotation Xrotation
										JOINT RightHandPinky2
										{
											OFFSET 0.000000 0.000000 3.350403
											CHANNELS 6 Xposition Yposition Zposition Zrotation Yrotation Xrotation
											JOINT RightHandPinky3
											{
												OFFSET 0.000000 0.000000 2.842758
												CHANNELS 6 Xposition Yposition Zposition Zrotation Yrotation Xrotation
												JOINT RightHandPinky4
												{
													OFFSET 0.000000 0.000000 2.639709
													CHANNELS 6 Xposition Yposition Zposition Zrotation Yrotation Xrotation
													End Site
													{
														OFFSET 0.000000 0.000000 0.100006
													}
												}
											}
										}
									}
									JOINT RightForeArmEnd
									{
										OFFSET 0.000000 0.000000 0.000000
										CHANNELS 6 Xposition Yposition Zposition Zrotation Yrotation Xrotation
										End Site
										{
											OFFSET 0.000000 0.000000 0.100006
										}
									}
								}
								JOINT RightArmEnd
								{
									OFFSET 0.000000 0.000000 0.000000
									CHANNELS 6 Xposition Yposition Zposition Zrotation Yrotation Xrotation
									End Site
									{
										OFFSET 0.000000 0.000000 0.100006
									}
								}
							}
						}
					}
					JOINT LeftShoulder
					{
						OFFSET 2.625397 0.000000 11.175217
						CHANNELS 6 Xposition Yposition Zposition Zrotation Yrotation Xrotation
						JOINT LeftArm
						{
							OFFSET 0.000000 0.000000 10.813629
							CHANNELS 6 Xposition Yposition Zposition Zrotation Yrotation Xrotation
							JOINT LeftForeArm
							{
								OFFSET 0.000000 0.000000 28.724777
								CHANNELS 6 Xposition Yposition Zposition Zrotation Yrotation Xrotation
								JOINT LeftHand
								{
									OFFSET 0.644379 0.328857 25.716171
									CHANNELS 6 Xposition Yposition Zposition Zrotation Yrotation Xrotation
									JOINT LeftHandThumb1
									{
										OFFSET 2.867310 -2.944275 3.959564
										CHANNELS 6 Xposition Yposition Zposition Zrotation Yrotation Xrotation
										JOINT LeftHandThumb2
										{
											OFFSET 0.000000 0.000000 3.350403
											CHANNELS 6 Xposition Yposition Zposition Zrotation Yrotation Xrotation
											JOINT LeftHandThumb3
											{
												OFFSET 0.000000 0.000000 3.756516
												CHANNELS 6 Xposition Yposition Zposition Zrotation Yrotation Xrotation
												JOINT LeftHandThumb4
												{
													OFFSET 0.000000 0.000000 3.100006
													CHANNELS 6 Xposition Yposition Zposition Zrotation Yrotation Xrotation
													End Site
													{
														OFFSET 0.000000 0.000000 0.100006
													}
												}
											}
										}
									}
									JOINT LeftHandIndex1
									{
										OFFSET 0.086761 -2.345276 10.030899
										CHANNELS 6 Xposition Yposition Zposition Zrotation Yrotation Xrotation
										JOINT LeftHandIndex2
										{
											OFFSET 0.000000 0.000000 4.061096
											CHANNELS 6 Xposition Yposition Zposition Zrotation Yrotation Xrotation
											JOINT LeftHandIndex3
											{
												OFFSET 0.000000 0.000000 3.248871
												CHANNELS 6 Xposition Yposition Zposition Zrotation Yrotation Xrotation
												JOINT LeftHandIndex4
												{
													OFFSET 0.000000 0.000000 2.639709
													CHANNELS 6 Xposition Yposition Zposition Zrotation Yrotation Xrotation
													End Site
													{
														OFFSET 0.000000 0.000000 0.100006
													}
												}
											}
										}
									}
									JOINT LeftHandMiddle1
									{
										OFFSET -0.104095 -0.006775 9.502945
										CHANNELS 6 Xposition Yposition Zposition Zrotation Yrotation Xrotation
										JOINT LeftHandMiddle2
										{
											OFFSET 0.000000 0.000000 4.568726
											CHANNELS 6 Xposition Yposition Zposition Zrotation Yrotation Xrotation
											JOINT LeftHandMiddle3
											{
												OFFSET 0.000000 0.000000 3.654984
												CHANNELS 6 Xposition Yposition Zposition Zrotation Yrotation Xrotation
												JOINT LeftHandMiddle4
												{
													OFFSET 0.000000 0.000000 2.741241
													CHANNELS 6 Xposition Yposition Zposition Zrotation Yrotation Xrotation
													End Site
													{
														OFFSET 0.000000 0.000000 0.100006
													}
												}
											}
										}
									}
									JOINT LeftHandRing1
									{
										OFFSET -0.086761 2.267456 8.921707
										CHANNELS 6 Xposition Yposition Zposition Zrotation Yrotation Xrotation
										JOINT LeftHandRing2
										{
											OFFSET 0.000000 0.000000 4.061096
											CHANNELS 6 Xposition Yposition Zposition Zrotation Yrotation Xrotation
											JOINT LeftHandRing3
											{
												OFFSET 0.000000 0.000000 3.654984
												CHANNELS 6 Xposition Yposition Zposition Zrotation Yrotation Xrotation
												JOINT LeftHandRing4
												{
													OFFSET 0.000000 0.000000 2.741241
													CHANNELS 6 Xposition Yposition Zposition Zrotation Yrotation Xrotation
													End Site
													{
														OFFSET 0.000000 0.000000 0.100006
													}
												}
											}
										}
									}
									JOINT LeftHandPinky1
									{
										OFFSET 0.173492 4.467224 7.976990
										CHANNELS 6 Xposition Yposition Zposition Zrotation Yrotation Xrotation
										JOINT LeftHandPinky2
										{
											OFFSET 0.000000 0.000000 3.350403
											CHANNELS 6 Xposition Yposition Zposition Zrotation Yrotation Xrotation
											JOINT LeftHandPinky3
											{
												OFFSET 0.000000 0.000000 2.842758
												CHANNELS 6 Xposition Yposition Zposition Zrotation Yrotation Xrotation
												JOINT LeftHandPinky4
												{
													OFFSET 0.000000 0.000000 2.639709
													CHANNELS 6 Xposition Yposition Zposition Zrotation Yrotation Xrotation
													End Site
													{
														OFFSET 0.000000 0.000000 0.100006
													}
												}
											}
										}
									}
									JOINT LeftForeArmEnd
									{
										OFFSET 0.000000 0.000000 0.000000
										CHANNELS 6 Xposition Yposition Zposition Zrotation Yrotation Xrotation
										End Site
										{
											OFFSET 0.000000 0.000000 0.100006
										}
									}
								}
								JOINT LeftArmEnd
								{
									OFFSET 0.000000 0.000000 0.000000
									CHANNELS 6 Xposition Yposition Zposition Zrotation Yrotation Xrotation
									End Site
									{
										OFFSET 0.000000 0.000000 0.100006
									}
								}
							}
						}
					}
				}
			}
		}
	}
	JOINT RightUpLeg
	{
		OFFSET -11.289948 0.000000 0.000000
		CHANNELS 6 Xposition Yposition Zposition Zrotation Yrotation Xrotation
		JOINT RightLeg
		{
			OFFSET 0.000000 0.000000 -38.200329
			CHANNELS 6 Xposition Yposition Zposition Zrotation Yrotation Xrotation
			JOINT RightFoot
			{
				OFFSET 0.000000 0.000000 -39.900856
				CHANNELS 6 Xposition Yposition Zposition Zrotation Yrotation Xrotation
				JOINT RightToeBase
				{
					OFFSET 0.000000 -15.261658 0.000001
					CHANNELS 6 Xposition Yposition Zposition Zrotation Yrotation Xrotation
					JOINT RightToeBaseEnd
					{
						OFFSET 0.000000 -7.370728 0.000000
						CHANNELS 6 Xposition Yposition Zposition Zrotation Yrotation Xrotation
						End Site
						{
							OFFSET 0.000000 0.000000 0.100000
						}
					}
				}
				JOINT RightLegEnd
				{
					OFFSET 0.000000 0.000000 0.000000
					CHANNELS 6 Xposition Yposition Zposition Zrotation Yrotation Xrotation
					End Site
					{
						OFFSET 0.000000 0.000000 0.100000
					}
				}
			}
			JOINT RightUpLegEnd
			{
				OFFSET 0.000000 0.000000 0.000000
				CHANNELS 6 Xposition Yposition Zposition Zrotation Yrotation Xrotation
				End Site
				{
					OFFSET 0.000000 0.000000 0.099998
				}
			}
		}
	}
	JOINT LeftUpLeg
	{
		OFFSET 11.315674 0.000000 0.000000
		CHANNELS 6 Xposition Yposition Zposition Zrotation Yrotation Xrotation
		JOINT LeftLeg
		{
			OFFSET 0.000000 0.000000 -38.200329
			CHANNELS 6 Xposition Yposition Zposition Zrotation Yrotation Xrotation
			JOINT LeftFoot
			{
				OFFSET 0.000000 0.000000 -39.900856
				CHANNELS 6 Xposition Yposition Zposition Zrotation Yrotation Xrotation
				JOINT LeftToeBase
				{
					OFFSET 0.000000 -15.261658 0.000001
					CHANNELS 6 Xposition Yposition Zposition Zrotation Yrotation Xrotation
					JOINT LeftToeBaseEnd
					{
						OFFSET 0.000000 -7.539978 0.000000
						CHANNELS 6 Xposition Yposition Zposition Zrotation Yrotation Xrotation
						End Site
						{
							OFFSET 0.000000 0.000000 0.100000
						}
					}
				}
				JOINT LeftLegEnd
				{
					OFFSET 0.000000 0.000000 0.000000
					CHANNELS 6 Xposition Yposition Zposition Zrotation Yrotation Xrotation
					End Site
					{
						OFFSET 0.000000 0.000000 0.100000
					}
				}
			}
			JOINT LeftUpLegEnd
			{
				OFFSET 0.000000 0.000000 0.000000
				CHANNELS 6 Xposition Yposition Zposition Zrotation Yrotation Xrotation
				End Site
				{
					OFFSET 0.000000 0.000000 0.099998
				}
			}
		}
	}
}
MOTION
Frames: 2
Frame Time: 0.016667
-1.184570 -14.960815 88.812332 36.483927 3.751912 -9.660112 0.000004 2.080077 8.814244 -0.253295 -0.832295 6.176267 -0.000010 -0.000004 8.844137 0.149550 1.015896 2.162773 0.000013 0.000020 11.682261 -1.127091 0.489852 5.812390 0.000006 0.000010 11.746704 -0.550113 0.438929 4.192026 -0.000006 0.000004 17.658268 -10.809165 -7.809941 7.991351 -0.000014 0.000003 5.101542 -9.172524 1.300258 -4.069640 0.000015 0.000038 5.101504 -1.012551 -1.745866 -19.020065 -0.000006 -0.000005 11.655073 0.000001 -0.000000 0.000000 -2.625384 -0.000023 11.175203 12.769703 -91.226793 0.625344 -0.000015 -0.000017 10.434723 -51.927517 -38.808606 51.890825 -0.000004 0.000008 29.628426 16.638641 1.635682 107.820062 0.000004 -0.000072 22.857605 10.766206 9.305749 14.975559 -2.867316 -2.944290 3.959549 32.323867 -25.818619 39.469358 0.000000 -0.000046 3.350388 -31.628895 10.697672 -53.449324 -0.000008 -0.000023 3.756546 -20.999415 10.680924 -36.468453 0.000014 -0.000008 3.147339 0.000001 0.000000 -0.000003 -0.086766 -2.345276 10.030878 -73.369277 -70.710947 74.123235 0.000000 -0.000004 4.061111 -6.860416 -58.306668 13.156126 -0.000004 0.000019 3.248871 -7.360428 -58.306682 13.156162 -0.000015 0.000001 2.639722 -0.000001 -0.000001 0.000003 0.104090 -0.006784 9.502922 -63.325757 -74.939326 66.665221 0.000013 -0.000002 4.568714 -2.217548 -58.300821 4.868599 0.000019 -0.000020 3.654989 -2.719217 -58.300767 4.871929 0.000040 0.000008 2.741243 -0.000001 0.000000 0.000000 0.086730 2.267418 8.921674 86.310150 -95.561730 -77.471352 -0.000010 -0.000016 4.061106 3.110634 -62.558085 -6.773093 -0.000010 0.000026 3.655022 4.120493 -62.557750 -6.781492 0.000004 -0.000010 2.741257 0.000002 -0.000002 -0.000003 -0.173504 4.467209 7.976967 -30.407756 -94.973022 46.000791 0.000000 0.000004 3.350426 10.552640 -61.477098 -20.953588 -0.000050 0.000008 2.842751 12.552600 -61.477057 -20.954754 -0.000014 0.000003 2.639723 -0.000000 -0.000001 -0.000004 -0.000007 0.000014 -0.000038 -0.000003 0.000003 0.000003 0.000002 0.000005 0.000008 -0.000001 -0.000001 0.000000 2.625396 -0.000021 11.175227 -8.310510 87.277653 -0.080527 0.000000 0.000029 10.813622 58.505686 47.706037 45.575096 0.000046 0.000046 28.724741 -13.731522 0.651350 113.740640 0.644363 0.328918 25.716164 8.595777 -38.843450 15.221739 2.867315 -2.944275 3.959595 -33.529658 29.323652 34.785061 -0.000008 -0.000015 3.350391 38.923865 -8.843036 -65.314367 -0.000008 -0.000008 3.756516 26.237357 -11.072360 -44.834837 -0.000006 0.000009 3.100007 -0.000003 -0.000001 -0.000002 0.086746 -2.345271 10.030899 -6.045003 103.177329 -18.575517 -0.000004 0.000015 4.061096 -17.616371 71.571230 -24.941971 -0.000008 0.000017 3.248871 -18.116324 71.571244 -24.942072 -0.000005 0.000009 2.639711 -0.000000 -0.000000 -0.000000 -0.104118 -0.006798 9.502934 -27.933346 103.532554 -33.380579 0.000019 0.000012 4.568727 -5.893864 71.306212 -8.905106 0.000010 0.000021 3.655022 -6.395756 71.306150 -8.909901 -0.000008 0.000005 2.741245 -0.000001 -0.000001 0.000001 -0.086739 2.267456 8.921707 -39.564564 112.380634 -36.910213 0.000019 -0.000011 4.061111 8.956037 74.778919 12.999162 -0.000002 -0.000030 3.654961 9.946980 74.779308 12.991847 -0.000007 0.000017 2.741241 -0.000003 0.000003 -0.000003 0.173485 4.467186 7.976982 -54.949377 117.720892 -43.934287 -0.000008 -0.000031 3.350445 25.377752 72.101130 37.006925 -0.000008 -0.000103 2.842796 27.371029 72.102175 37.000105 -0.000021 -0.000064 2.639724 -0.000000 0.000001 0.000000 -0.000002 0.000018 -0.000007 -0.000002 0.000002 -0.000004 0.000014 -0.000008 -0.000001 0.000001 -0.000000 0.000000 -11.289946 0.000016 -0.000011 -13.184296 5.835789 5.790951 0.000010 -0.000011 -38.200329 -0.094728 0.043498 26.077019 0.000010 -0.000017 -39.900864 -25.973995 -1.470975 25.545850 -0.000008 -15.261606 0.000025 0.761915 -1.360408 -25.811124 0.000004 -7.370721 0.000002 -0.000001 -0.000000 -0.000003 0.000006 0.000002 -0.000000 -0.000000 -0.000000 -0.000000 0.000011 0.000020 0.000004 -0.000003 -0.000001 -0.000001 11.315686 -0.000012 -0.000010 -7.827124 0.297224 -0.971417 0.000018 -0.000019 -38.200317 0.009033 -0.003332 20.255672 -0.000010 -0.000045 -39.900867 6.834312 -3.874611 15.975701 -0.000002 -15.261700 0.000019 0.139260 -0.558135 -22.297827 -0.000018 -7.539997 -0.000000 0.000003 0.000000 0.000000 -0.000020 0.000013 -0.000001 -0.000002 0.000001 -0.000001 0.000005 0.000007 -0.000000 -0.000001 -0.000000 -0.000000 
-0.976624 -15.056519 88.804062 36.491614 3.808992 -9.723281 0.000010 2.080073 8.814260 -0.255800 -0.887239 6.163003 -0.000005 0.000004 8.844149 0.139189 0.972171 2.139919 -0.000000 -0.000022 11.682282 -1.100223 0.476086 5.867449 -0.000007 0.000006 11.746709 -0.532190 0.430917 4.230115 0.000015 -0.000011 17.658264 -10.593765 -7.630232 7.822196 0.000012 0.000016 5.101528 -9.037754 1.281720 -4.135134 0.000012 0.000001 5.101574 -1.014072 -1.716876 -19.148738 -0.000003 -0.000002 11.655073 0.000000 0.000000 0.000000 -2.625414 0.000004 11.175197 12.772621 -91.249989 0.601823 -0.000023 -0.000008 10.434723 -51.748156 -38.818800 51.782000 -0.000011 -0.000031 29.628422 16.785272 1.628693 107.723940 -0.000008 -0.000114 22.857563 10.549280 9.062856 15.036019 -2.867282 -2.944214 3.959564 32.323874 -25.818626 39.469351 0.000015 0.000000 3.350395 -31.628943 10.698128 -53.449580 0.000000 -0.000023 3.756531 -20.999430 10.680913 -36.468470 -0.000034 -0.000002 3.147352 -0.000000 -0.000001 -0.000000 -0.086749 -2.345263 10.030905 -73.734556 -70.745624 74.041067 -0.000015 -0.000017 4.061096 -6.879529 -58.347779 13.179165 0.000000 -0.000027 3.248886 -7.379528 -58.347745 13.178134 -0.000020 0.000001 2.639696 -0.000001 -0.000001 -0.000001 0.104111 -0.006783 9.502920 -63.414885 -74.949162 66.505224 0.000029 -0.000010 4.568712 -2.222296 -58.307829 4.874650 -0.000018 0.000007 3.654974 -2.723331 -58.307631 4.877230 0.000012 -0.000010 2.741230 0.000002 0.000000 0.000001 0.086754 2.267445 8.921666 87.088156 -95.557126 -78.354106 -0.000017 0.000000 4.061089 3.111483 -62.511394 -6.771904 -0.000021 -0.000009 3.654972 4.117192 -62.511093 -6.776040 0.000011 0.000000 2.741262 -0.000000 -0.000002 0.000000 -0.173449 4.467237 7.976957 -31.406228 -94.833283 46.949132 -0.000008 0.000034 3.350418 10.475824 -61.380991 -20.878044 -0.000023 0.000015 2.842758 12.490514 -61.379550 -20.890443 0.000005 0.000011 2.639708 0.000001 0.000001 -0.000001 0.000014 0.000014 -0.000039 -0.000001 0.000000 0.000002 -0.000005 0.000006 -0.000003 -0.000001 -0.000001 -0.000000 2.625396 -0.000015 11.175213 -8.357503 87.290091 -0.091461 0.000015 0.000017 10.813652 58.112493 47.611876 45.364361 -0.000031 0.000008 28.724731 -13.683389 0.636183 113.653193 0.644310 0.328842 25.716171 8.765979 -38.663874 15.134758 2.867271 -2.944275 3.959610 -33.529627 29.323658 34.785050 -0.000008 0.000015 3.350445 38.923875 -8.843068 -65.314367 -0.000008 0.000000 3.756516 26.237381 -11.072380 -44.834840 0.000000 -0.000002 3.100006 0.000000 -0.000000 0.000000 0.086761 -2.345242 10.030910 -6.091438 103.120926 -18.694489 -0.000004 0.000010 4.061111 -17.576735 71.542065 -24.899048 0.000000 -0.000013 3.248871 -18.076738 71.542051 -24.899461 -0.000004 -0.000004 2.639712 0.000001 -0.000002 0.000003 -0.104103 -0.006784 9.502964 -28.040918 103.489585 -33.562368 -0.000002 0.000019 4.568733 -5.877081 71.275169 -8.887184 0.000019 0.000009 3.654982 -6.379776 71.275135 -8.892991 -0.000003 0.000010 2.741245 -0.000001 -0.000001 0.000001 -0.086754 2.267484 8.921722 -39.608503 112.365156 -36.984498 -0.000008 0.000025 4.061115 8.931253 74.762233 12.973488 0.000006 0.000005 3.654968 9.924461 74.762533 12.968231 -0.000014 0.000010 2.741234 -0.000002 0.000001 0.000000 0.173500 4.467209 7.976997 -54.979034 117.708161 -43.925008 -0.000008 -0.000076 3.350418 25.363851 72.095406 36.988070 -0.000008 -0.000145 2.842800 27.363888 72.095440 36.988142 -0.000020 -0.000047 2.639729 -0.000003 0.000001 -0.000001 0.000001 -0.000002 0.000012 0.000002 -0.000000 0.000000 0.000011 -0.000004 -0.000002 0.000001 0.000000 0.000000 -11.289938 -0.000039 -0.000011 -13.034364 5.829103 5.889450 -0.000007 0.000116 -38.200336 -0.092086 0.043608 26.181456 0.000000 -0.000030 -39.900864 -26.235144 -1.471490 25.783522 -0.000006 -15.261583 0.000032 0.785949 -1.500508 -26.078178 -0.000002 -7.370662 -0.000001 -0.000001 -0.000000 -0.000001 -0.000000 0.000001 -0.000001 -0.000000 0.000001 0.000001 0.000007 0.000015 -0.000006 -0.000002 -0.000002 -0.000000 11.315688 -0.000007 0.000003 -7.794491 0.345123 -0.831829 0.000009 -0.000011 -38.200325 -0.011942 0.004428 20.367966 -0.000003 -0.000028 -39.900864 6.841046 -4.007097 15.838433 -0.000014 -15.261739 0.000028 0.149332 -0.539619 -22.233473 -0.000019 -7.539918 0.000001 0.000000 -0.000000 0.000000 -0.000033 0.000077 0.000000 -0.000003 0.000001 0.000002 0.000015 -0.000008 -0.000010 0.000001 0.000000 0.000000 
